# xmcd CD database file generated by OrangeCD 4.3
#
# Track frame offsets:
#	150
#	2503
#	21249
#	40700
#	57312
#	59638
#	79789
#	97790
#	117190
#	136225
#	154401
#	169517
#	188300
#	202714
#	220706
#	237967
#
# Disc length: 3352 seconds
#
# Revision: 0
# Processed by: cddbd v1.4PL0 Copyright (c) Steve Scherf et al.
# Submitted via: OrangeCD 4.3
#
DISCID=bf0d1610
DTITLE=Mr. Shadow - A Name you Kan't Toucj
DYEAR=2002
DGENRE=
TTITLE0=Intro
TTITLE1=Do your Thang
TTITLE2=Sound Of My Heata
TTITLE3=West Coast party
TTITLE4=World Premiere
TTITLE5=Who Wanna Roll
TTITLE6=What Am I To Do
TTITLE7=Komfort Zone
TTITLE8=It Ain't Over
TTITLE9=Take It Off
TTITLE10=We Fucking Tonight
TTITLE11=For My MuthFuckazz
TTITLE12=Watch your Back
TTITLE13=The Way I Do It
TTITLE14=It's Mr. Shadow
TTITLE15=Like It Or Not
EXTD=
EXTT0=
EXTT1=
EXTT2=
EXTT3=
EXTT4=
EXTT5=
EXTT6=
EXTT7=
EXTT8=
EXTT9=
EXTT10=
EXTT11=
EXTT12=
EXTT13=
EXTT14=
EXTT15=
PLAYORDER=
